<?xml version="1.0" encoding="UTF-8"?>
<svg version="1.1" viewBox="850 550 700 900" width="230" height="230" xmlns="http://www.w3.org/2000/svg" style="transform: translateY(20px);">
<path transform="translate(981,749)" d="m0 0h2l6 152 4 107v20l4-1 6-144 5-130 1-3 9 2 55 18 159 53 1 4-6 11-16 32-14 27-15 30-10 19-15 30-10 19-16 32-10 19-8 15h40l60 2 51 3 16 2 2 1v3l-10 2-38 3-47 2-68 2-62 1h-107l-76-1-92-3-47-3-15-2-3-2v-2l10-2 23-2 62-3 65-2-28-56-10-19-18-36-10-19-16-32-10-19-15-30-10-19-2-3 1-4 219-73z" fill="#354A70"/>
<path transform="translate(993,660)" d="m0 0 7 1 79 35 39 17 43 19 7 4 1 10v35l-8-1-81-27-41-14-42-14-6 1-41 14-123 41h-4v-45l14-7 29-13 30-13 43-19 41-18z" fill="#75D0F4"/>
<path transform="translate(995,584)" d="m0 0 5 1 28 15 23 13 30 16 23 13 26 14 10 6 1 1v38l-6-1-137-61-9 3-54 23-30 13-35 15-17 7-1-1v-37l3-3 32-17 18-10 25-13 22-12 23-12z" fill="#75D0F4"/>
<path transform="translate(636,1205)" d="m0 0 6 2 7 30 13 59 2 7h1l10-46 11-49 3-3 31 1 1 1v154l-1 2h-25l-1-22v-69l-3 9-9 42-8 35-2 5h-15l-3-7-10-43-9-39-1-2v90l-5 2-20-1-1-1v-155l1-1z" fill="#354B71"/>
<path transform="translate(1262,1205)" d="m0 0h26l13 2 8 5 4 5 3 7 1 6v27l-7 1h-17l-2-1-1-19-1-6h-20l-6 1-1 3v99l7 2h14l6-2 1-4 1-28h-13l-1-2v-22l2-2h37l1 1v58l-2 12-6 9-6 4-7 2-13 1h-20l-13-2-7-4-6-7-3-10v-114l4-11 8-7 7-3z" fill="#354B71"/>
<path transform="translate(976,476)" d="m0 0h40l1 53 36 26 19 14 18 13 13 10 1 1v24l-4-1-22-12-24-14-23-13-24-14-10-6-5 2-16 9-18 11-55 33-13 8h-2l-1-2v-21l4-5 11-8 17-13 21-16 13-10 16-12 5-4 1-52z" fill="#75D0F4"/>
<path transform="translate(1135,1205)" d="m0 0h21l14 2 8 5 6 8 2 8v111l-2 9-6 9-6 4-8 2-12 1h-17l-12-2-7-4-5-6-3-6-1-5v-113l3-10 7-8 9-4zm2 26-3 1-1 5v97l2 3 3 1h18l4-2v-102l-1-2-3-1z" fill="#354B71"/>
<path transform="translate(785,1205)" d="m0 0 5 1 5 12 17 44 2 1 7-20 14-35 3-3 25 1-1 6-14 35-15 36-5 13-1 5-1 62h-26l-1-32v-29l-2-9-10-24-18-44-6-16v-3z" fill="#354B72"/>
<path transform="translate(900,1094)" d="m0 0h201l60 2 34 2 21 3 1 3-12 2-45 3-60 2-112 1-92-1-58-2-44-3-10-2-1-3 11-2 45-3z" fill="#354C72"/>
<path transform="translate(1056,792)" d="m0 0h8l11 1 16 4 13 4 6 1 5 3 1 2 12 3 3 2 7 2 5 3 4 3 7 2 2 1v2l5 1 6 2 4 5 3 2 1 4 1 5-4 3-6-1-5 4h-6l-7 2-14 8-10 4-4-1-5-4v6l-5-5h-3l-6 1-1-2v-5l-5-1-7-3-6 1-3-3-3 2-2 1-4-4-1 2-5-4-3-3-8-1-3-6-5-4-2-7-2-1 1-5-1-5-2-2 1-10v-3l5-2 6-2z" fill="#365983"/>
<path transform="translate(986,1205)" d="m0 0 22 1 1 1v131h49l1 1v23l-1 1-41 1h-33l-2-1v-157z" fill="#354B71"/>
<path transform="translate(1367,1205)" d="m0 0h11l13 1 1 1v155l-1 1-24 1-2-1v-157z" fill="#354A70"/>
<path transform="translate(927,799)" d="m0 0 3 3-1 3 9-1 1 3 3 1-5 3v1l1 5-7 2-4 3-5 2h-6l-4-2h-2l-1 4-1 1-8-1-2 5-4 2h-9l-6-2-4 4h-9l-9 4-4-1v-3l1-2 1-8 2-2 7-2 4-6 7-2 4-1 10-2 3-3 5 1 5-2 11-2 5-1 2 3 4-1-1-3z" fill="#365983"/>
<path transform="translate(1365,1219)" d="m0 0h1l2 8v44l-2 4-1-11z" fill="#365983"/>
<path transform="translate(838,829)" d="m0 0 3 3-3 7-7 2h-3l-1 3-4 1 1-7 1-1h8l2-6z" fill="#375A84"/>
<path transform="translate(906,606)" d="m0 0h2v3l-18 11h-2v-12l2 1 1 3h4v-2l4-1z" fill="#406C95"/>
<path transform="translate(934,560)" d="m0 0 1 2-7 6-4 4-5 2-3 4h-3l-2 4-6 1 5-5 18-14z" fill="#4677A0"/>
<path transform="translate(894,590)" d="m0 0 3 1-8 11-2-4 3-5z" fill="#416D96"/>
<path transform="translate(958,604)" d="m0 0 4 1-3 2-10 5-3-1 8-5z" fill="#45759E"/>
<path transform="translate(918,572)" d="m0 0 2 1-4 5h-3l-2 4-6 1 5-5z" fill="#426F98"/>
<path transform="translate(1367,1205)" d="m0 0h11v1l-8 1-2 1 1 4-4 1v-7z" fill="#4A7EA6"/>
</svg>
